<svg width="120" height="120" viewBox="0 0 160 160" fill="none" xmlns="http://www.w3.org/2000/svg">
<path d="M65.4508 98.5939C71.8951 91.8594 82.6873 91.9654 88.9983 98.8251L137.793 151.863C139.267 153.465 141.346 154.377 143.523 154.377C150.311 154.377 153.849 146.298 149.246 141.31L98.7998 86.6475C93.0008 80.3639 93.1062 70.649 99.04 64.4926L143.092 18.7888C147.796 13.9086 144.337 5.77148 137.559 5.77148C135.435 5.77148 133.405 6.65091 131.952 8.20088L89.6363 53.3485C83.2246 60.1892 72.354 60.1486 65.9936 53.2602L24.4386 8.25526C22.9766 6.67194 20.9196 5.77148 18.7646 5.77148C12.0048 5.77148 8.50705 13.8417 13.1289 18.7746L55.891 64.415C61.7902 70.7112 61.6967 80.5329 55.6787 86.7157L2.96876 140.87C-1.93989 145.913 1.63345 154.377 8.67106 154.377C10.8423 154.377 12.9192 153.49 14.4203 151.922L65.4508 98.5939Z" fill="black" />
</svg>